# xmcd CD database file
#
# Track frame offsets:
#	150
#	13715
#	30222
#	42717
#	57140
#	69665
#	101802
#	125762
#	133812
#
# Disc length: 2044 seconds
#
# Revision: 0
# Processed by: cddbd v1.5.1PL0 Copyright (c) Steve Scherf et al.
# Submitted via: CDex 1.51
#
DISCID=8007fa09
DTITLE=Little Jimmy Scott - The Paul Gayten Band - with special guest Sam Butera - Regal Records: Live In New Orleans (at Rip's Playhouse, 1951)
DYEAR=1991
DGENRE=Blues
TTITLE0=All Of Me
TTITLE1=When Your Lover Has Gone
TTITLE2=Everybody's Somebody's Fool
TTITLE3=The Loneliest House On The Street
TTITLE4=Anytime, Anyplace, Anywhere
TTITLE5=Dueling Tenors
TTITLE6=Body And Soul
TTITLE7=Band Intro
TTITLE8=Flying Home
EXTD=YEAR: 1991
EXTT0=
EXTT1=
EXTT2=
EXTT3=
EXTT4=
EXTT5=
EXTT6=
EXTT7=
EXTT8=
PLAYORDER=
